<?xml version="1.0" standalone="no"?>
<!DOCTYPE svg PUBLIC "-//W3C//DTD SVG 20010904//EN"
 "http://www.w3.org/TR/2001/REC-SVG-20010904/DTD/svg10.dtd">
<svg version="1.0" xmlns="http://www.w3.org/2000/svg"
 width="48.000000pt" height="43.000000pt" viewBox="0 0 48.000000 43.000000"
 preserveAspectRatio="xMidYMid meet">

<g transform="translate(0.000000,43.000000) scale(0.100000,-0.100000)"
fill="#000000" stroke="none">
<path d="M204 355 c-7 -19 -14 -39 -14 -44 0 -6 -24 -11 -52 -13 -69 -4 -75
-26 -19 -63 l39 -27 -15 -45 c-22 -63 -7 -75 47 -39 l42 27 37 -25 c20 -14 42
-26 49 -26 15 0 16 39 1 77 -10 26 -7 31 27 59 49 41 42 62 -22 66 -46 3 -48
4 -62 46 -17 51 -38 54 -58 7z m109 -75 l52 -1 -24 -20 c-13 -11 -31 -24 -40
-29 -13 -7 -14 -15 -4 -52 6 -23 10 -44 8 -46 -2 -2 -19 8 -38 22 l-33 26 -42
-31 c-23 -17 -42 -29 -42 -26 0 2 7 24 15 47 8 23 15 44 15 45 0 1 -19 15 -42
31 l-42 29 54 5 c53 5 54 5 68 50 l15 44 14 -47 14 -47 52 0z"/>
</g>
</svg>
